<svg xmlns="http://www.w3.org/2000/svg" viewBox="0 0 1024 1024" width="100%" height="100%">
  <!-- Pure White GitHub Icon (No Background) -->
  <path fill="#ffffff" fill-rule="evenodd" clip-rule="evenodd" d="M512 0C229.25 0 0 229.25 0 512c0 226.25 146.68 418.13 350.15 485.81 25.6 4.74 34.98-11.1 34.98-24.67 0-12.16-.45-44.38-.68-87.14-142.44 30.93-172.5-68.65-172.5-68.65-23.3-59.17-56.88-74.92-56.88-74.92-46.47-31.77 3.52-31.14 3.52-31.14 51.39 3.61 78.44 52.77 78.44 52.77 45.67 78.25 119.86 55.63 149 42.5 4.65-33 17.84-55.63 32.44-68.44-113.71-12.93-233.24-56.86-233.24-253.06 0-55.9 19.96-101.59 52.72-137.41-5.27-12.94-22.85-65 5.02-135.49 0 0 43-13.76 140.8 52.48 40.84-11.36 84.65-17.03 128.18-17.23 43.49.2 87.3 5.87 128.18 17.23 97.68-66.24 140.56-52.48 140.56-52.48 27.95 70.49 10.37 122.55 5.1 135.49 32.85 35.82 52.65 81.51 52.65 137.41 0 196.69-119.74 239.99-233.79 252.64 18.39 15.83 34.77 47.1 34.77 94.92 0 68.53-.62 123.83-.62 140.63 0 13.68 9.25 29.68 35.25 24.59C877.44 929.98 1024 738.2 1024 512 1024 229.25 794.75 0 512 0z"/>
</svg>
